<?xml version="1.0" encoding="UTF-8" standalone="no"?>
<svg
   xmlns:dc="http://purl.org/dc/elements/1.1/"
   xmlns:cc="http://creativecommons.org/ns#"
   xmlns:rdf="http://www.w3.org/1999/02/22-rdf-syntax-ns#"
   xmlns:svg="http://www.w3.org/2000/svg"
   xmlns="http://www.w3.org/2000/svg"
   xmlns:sodipodi="http://sodipodi.sourceforge.net/DTD/sodipodi-0.dtd"
   xmlns:inkscape="http://www.inkscape.org/namespaces/inkscape"
   inkscape:version="1.0 (6e3e5246a0, 2020-05-07)"
   sodipodi:docname="attendance_icon2.svg"
   id="svg34"
   xml:space="preserve"
   width="64px"
   viewBox="0 0 64 64"
   version="1.1"
   height="64px"
   enable-background="new 0 0 64 64"><metadata
     id="metadata40"><rdf:RDF><cc:Work
         rdf:about=""><dc:format>image/svg+xml</dc:format><dc:type
           rdf:resource="http://purl.org/dc/dcmitype/StillImage" /><dc:title></dc:title></cc:Work></rdf:RDF></metadata><defs
     id="defs38" /><sodipodi:namedview
     showborder="false"
     inkscape:current-layer="Layer_1"
     inkscape:window-maximized="1"
     inkscape:window-y="68"
     inkscape:window-x="51"
     inkscape:cy="32"
     inkscape:cx="32"
     inkscape:zoom="8.46875"
     showgrid="false"
     id="namedview36"
     inkscape:window-height="1025"
     inkscape:window-width="1869"
     inkscape:pageshadow="2"
     inkscape:pageopacity="0"
     guidetolerance="10"
     gridtolerance="10"
     objecttolerance="10"
     borderopacity="1"
     bordercolor="#666666"
     pagecolor="#ffffff" /><g
     id="Layer_1"><g
       inkscape:export-ydpi="192"
       inkscape:export-xdpi="192"
       inkscape:export-filename="/home/carlitro/workspace/chrome/attendance/images/icon_128.png"
       id="g896"><g
         id="g4"><circle
           cx="32"
           cy="32"
           fill="#76C2AF"
           r="32"
           id="circle2" /></g><g
         id="g878"
         transform="translate(1.6170374,-0.37750335)"><g
           transform="matrix(1.3476663,0,0,1.3476663,-13.775838,-11.422236)"
           id="g10"
           opacity="0.2"><g
             id="g8"><path
               id="path6"
               fill="#231f20"
               d="m 46,45 c 0,2.209 -1.791,4 -4,4 H 22 c -2.209,0 -4,-1.791 -4,-4 V 25 c 0,-2.209 1.791,-4 4,-4 h 20 c 2.209,0 4,1.791 4,4 z" /></g></g><g
           transform="matrix(1.3476663,0,0,1.3476663,-13.775838,-11.422236)"
           id="g20"><g
             id="g14"><path
               id="path12"
               fill="#ffffff"
               d="m 22,45 c -1.103,0 -2,-0.897 -2,-2 V 23 c 0,-1.103 0.897,-2 2,-2 h 20 c 1.103,0 2,0.897 2,2 v 20 c 0,1.103 -0.897,2 -2,2 z" /></g><g
             id="g18"><path
               id="path16"
               fill="#4f5d73"
               d="M 42,23 V 43 H 22 V 23 h 20 m 0,-4 H 22 c -2.209,0 -4,1.791 -4,4 v 20 c 0,2.209 1.791,4 4,4 h 20 c 2.209,0 4,-1.791 4,-4 V 23 c 0,-2.209 -1.791,-4 -4,-4 z" /></g></g><g
           transform="matrix(1.3476663,0,0,1.3476663,-13.775838,-11.422236)"
           id="g26"
           opacity="0.2"><g
             id="g24"><path
               id="path22"
               fill="#231f20"
               d="m 32.452,41 c -0.618,0 -1.207,-0.287 -1.588,-0.785 l -6.119,-8 c -0.671,-0.877 -0.503,-2.132 0.374,-2.803 0.877,-0.67 2.132,-0.504 2.803,0.374 l 4.187,5.474 c 2.31,-4.155 7.326,-11.783 15.306,-16.939 0.927,-0.6 2.167,-0.333 2.765,0.594 0.6,0.928 0.333,2.166 -0.594,2.765 C 39.378,28.276 34.337,39.683 34.287,39.797 34.004,40.447 33.399,40.9 32.695,40.985 32.613,40.995 32.532,41 32.452,41 Z" /></g></g><g
           transform="matrix(1.3476663,0,0,1.3476663,-13.775838,-11.422236)"
           id="g30"><path
             id="path28"
             fill="#c75c5c"
             d="m 32.452,39 c -0.618,0 -1.207,-0.287 -1.589,-0.785 l -6.119,-8 c -0.671,-0.877 -0.504,-2.133 0.374,-2.804 0.877,-0.67 2.134,-0.503 2.804,0.374 l 4.188,5.475 c 2.309,-4.155 7.325,-11.783 15.305,-16.939 0.929,-0.599 2.166,-0.333 2.766,0.594 0.6,0.928 0.334,2.166 -0.594,2.766 -10.208,6.596 -15.25,18.003 -15.3,18.117 -0.282,0.65 -0.888,1.103 -1.592,1.188 C 32.613,38.995 32.532,39 32.452,39 Z" /></g></g></g></g><g
     id="Layer_2" /></svg>
