<?xml version="1.0" encoding="UTF-8" standalone="no"?>
<svg
   xmlns:dc="http://purl.org/dc/elements/1.1/"
   xmlns:cc="http://creativecommons.org/ns#"
   xmlns:rdf="http://www.w3.org/1999/02/22-rdf-syntax-ns#"
   xmlns:svg="http://www.w3.org/2000/svg"
   xmlns="http://www.w3.org/2000/svg"
   xmlns:sodipodi="http://sodipodi.sourceforge.net/DTD/sodipodi-0.dtd"
   xmlns:inkscape="http://www.inkscape.org/namespaces/inkscape"
   inkscape:version="1.0 (6e3e5246a0, 2020-05-07)"
   inkscape:export-ydpi="73.492821"
   inkscape:export-xdpi="73.492821"
   inkscape:export-filename="/home/carlitro/workspace/chrome/attendance/images/icon_32.png"
   sodipodi:docname="attendance_icon.svg"
   xml:space="preserve"
   viewBox="0 0 50 50"
   version="1.1"
   style="enable-background:new 0 0 50 50;"
   id="Слой_1"><metadata
     id="metadata122"><rdf:RDF><cc:Work
         rdf:about=""><dc:format>image/svg+xml</dc:format><dc:type
           rdf:resource="http://purl.org/dc/dcmitype/StillImage" /><dc:title></dc:title></cc:Work></rdf:RDF></metadata><defs
     id="defs120" /><sodipodi:namedview
     inkscape:current-layer="SLA"
     inkscape:window-maximized="1"
     inkscape:window-y="68"
     inkscape:window-x="51"
     inkscape:cy="28.21862"
     inkscape:cx="21.356089"
     inkscape:zoom="10.84"
     showborder="false"
     showgrid="false"
     id="namedview118"
     inkscape:window-height="1025"
     inkscape:window-width="1869"
     inkscape:pageshadow="2"
     inkscape:pageopacity="0"
     guidetolerance="10"
     gridtolerance="10"
     objecttolerance="10"
     borderopacity="1"
     bordercolor="#666666"
     pagecolor="#ffffff" /><style
     id="style2"
     type="text/css">
	.st0{display:none;}
	.st1{display:inline;}
	.st2{display:inline;fill:none;stroke:#000000;stroke-width:3;stroke-miterlimit:10;}
	.st3{display:inline;fill:none;stroke:#000000;stroke-width:5;stroke-linecap:round;stroke-miterlimit:10;}
	.st4{display:inline;fill:none;stroke:#000000;stroke-width:3;stroke-linecap:round;stroke-miterlimit:10;}
	.st5{fill:none;stroke:#000000;stroke-width:3;stroke-linecap:round;stroke-miterlimit:10;}
	.st6{display:inline;stroke:#000000;stroke-width:3;stroke-linecap:round;stroke-miterlimit:10;}
	.st7{display:none;fill:none;stroke:#000000;stroke-width:3;stroke-linecap:round;stroke-miterlimit:10;}
</style><g
     id="поиск"
     class="st0"><g
       id="g8"
       class="st1"><g
         id="g6"><path
           id="path4"
           d="M19.5,8.2c6.2,0,11.3,5.1,11.3,11.3s-5.1,11.3-11.3,11.3S8.2,25.8,8.2,19.5S13.2,8.2,19.5,8.2 M19.5,5.2     c-7.9,0-14.3,6.4-14.3,14.3s6.4,14.3,14.3,14.3s14.3-6.4,14.3-14.3S27.3,5.2,19.5,5.2L19.5,5.2z" /></g></g><line
       id="line10"
       y2="32"
       y1="28.7"
       x2="32.1"
       x1="28.8"
       class="st2" /><line
       id="line12"
       y2="33"
       y1="44.8"
       x2="33"
       x1="44.8"
       class="st3" /></g><g
     id="активы"
     class="st0"><path
       id="path15"
       d="M46.3,13.9H3.7c-0.3,0-0.5-0.2-0.5-0.5V6.6c0-0.6,0.4-1,1-1h41.7c0.6,0,1,0.4,1,1v6.8   C46.8,13.7,46.6,13.9,46.3,13.9z"
       class="st4" /><path
       id="path17"
       d="M42.5,44.4H7.5c-0.6,0-1-0.4-1-1V13.9h37.1v29.5C43.5,43.9,43.1,44.4,42.5,44.4z"
       class="st4" /><path
       id="path19"
       d="M32.3,26.5H18.2c-1.6,0-2.9-1.3-2.9-2.9v0c0-1.6,1.3-2.9,2.9-2.9h14.1c1.6,0,2.9,1.3,2.9,2.9v0   C35.2,25.1,33.9,26.5,32.3,26.5z"
       class="st4" /></g><g
     id="заявки"
     class="st0"><path
       id="path22"
       d="M11.6,41.3h-3c-0.6,0-1-0.4-1-1v-32c0-0.6,0.4-1,1-1h3V41.3z"
       class="st4" /><path
       id="path24"
       d="M32.2,6.1H12.6c-0.6,0-1,0.4-1,1v35.8c0,0.6,0.4,1,1,1h28.9c0.6,0,1-0.4,1-1V15c0-0.3-0.1-0.6-0.4-0.8   l-9.2-7.8C32.7,6.2,32.4,6.1,32.2,6.1z"
       class="st4" /><line
       id="line26"
       y2="14.9"
       y1="6.1"
       x2="32.2"
       x1="32.2"
       class="st4" /><line
       id="line28"
       y2="15"
       y1="15"
       x2="32.2"
       x1="42.4"
       class="st4" /><g
       id="g38"
       class="st1"><line
         id="line30"
         y2="20.9"
         y1="20.9"
         x2="36"
         x1="19"
         class="st5" /><line
         id="line32"
         y2="26"
         y1="26"
         x2="33.3"
         x1="19"
         class="st5" /><line
         id="line34"
         y2="30.9"
         y1="30.9"
         x2="36"
         x1="19"
         class="st5" /><line
         id="line36"
         y2="35.6"
         y1="35.6"
         x2="33.3"
         x1="19"
         class="st5" /></g></g><g
     id="регистрация"
     class="st0"><path
       id="path41"
       d="M38.5,32.6v10.7c0,0.6-0.4,1-0.9,1H9.3c-0.5,0-0.9-0.4-0.9-1V6.6c0-0.6,0.4-1,0.9-1h28.3c0.5,0,0.9,0.4,0.9,1   v10.5"
       class="st4" /><path
       id="path43"
       d="M28.5,30V20c0-0.2-0.3-0.4-0.5-0.2l-6.6,5c-0.2,0.1-0.2,0.4,0,0.5l6.6,5C28.3,30.4,28.5,30.2,28.5,30z"
       class="st6" /><line
       id="line45"
       y2="25"
       y1="25"
       x2="45.6"
       x1="28.5"
       class="st4" /></g><g
     id="оповещение"
     class="st0"><path
       id="path48"
       d="M9.9,16.1h31.3v-4.6c0-0.6-0.4-1-1-1H4.4c-0.6,0-1,0.4-1,1v23.2c0,0.6,0.4,1,1,1h4.6V17.1   C8.9,16.5,9.4,16.1,9.9,16.1z"
       class="st4" /><path
       id="path50"
       d="M46,42.8H9.9c-0.6,0-1-0.4-1-1V17.1c0-0.6,0.4-1,1-1H46c0.6,0,1,0.4,1,1v24.7C47,42.4,46.6,42.8,46,42.8z"
       class="st4" /><path
       id="path52"
       d="M46,42.8H9.9c-0.6,0-1-0.4-1-1V17.1c0-0.6,0.4-1,1-1l15.3,14.6c1.5,1.5,4,1.5,5.5,0L46,16.1c0.6,0,1,0.4,1,1   v24.7C47,42.4,46.6,42.8,46,42.8z"
       class="st4" /><line
       id="line54"
       y2="38.6"
       y1="27.9"
       x2="8.9"
       x1="22.3"
       class="st4" /><line
       id="line56"
       y2="38.9"
       y1="28.1"
       x2="47"
       x1="33.6"
       class="st4" /></g><g
     id="синхронизация"
     class="st0"><path
       id="path59"
       d="M30.8,36.6l5.8,8.1c0.1,0.2,0.5,0.2,0.5-0.1l2.5-7.9c0.1-0.2-0.1-0.4-0.3-0.4L31,36.1   C30.8,36.1,30.7,36.4,30.8,36.6z"
       class="st6" /><path
       id="path61"
       d="M18.7,12.6l-5.8-8.1c-0.1-0.2-0.5-0.2-0.5,0.1l-2.5,7.9c-0.1,0.2,0.1,0.4,0.3,0.4l8.3,0.2   C18.7,13.1,18.9,12.8,18.7,12.6z"
       class="st6" /><path
       id="path63"
       d="M39.4,36.5c-3.5,4.3-8.7,7-14.6,7c-10.4,0-18.8-8.4-18.8-18.8c0-1.5,0.2-2.9,0.5-4.3"
       class="st4" /><path
       id="path65"
       d="M10.1,12.6c3.5-4.3,8.7-7,14.6-7c10.4,0,18.8,8.4,18.8,18.8c0,1.5-0.2,2.9-0.5,4.3"
       class="st4" /></g><path
     id="взаимодействие"
     d="M25.1,5.3c-11.5,0-20.9,8.1-20.9,18.2c0,5.8,3.1,11,8,14.3L7.5,45  c-0.2,0.2,0.1,0.5,0.3,0.4c4.7-0.6,8.9-2,12.5-4.3c1.5,0.3,3.1,0.5,4.8,0.5c11.5,0,20.9-8.1,20.9-18.2S36.7,5.3,25.1,5.3z"
     class="st7" /><g
     inkscape:export-ydpi="36.74641"
     inkscape:export-xdpi="36.74641"
     inkscape:export-filename="/home/carlitro/workspace/chrome/attendance/images/icon_16.png"
     id="SLA"><g
       inkscape:export-ydpi="253.68694"
       inkscape:export-xdpi="253.68694"
       inkscape:export-filename="/home/carlitro/workspace/chrome/attendance/images/icon_128.png"
       id="g973"><path
         inkscape:export-ydpi="73.492821"
         inkscape:export-xdpi="73.492821"
         inkscape:export-filename="/home/carlitro/workspace/chrome/attendance/images/icon_32.png"
         id="path956"
         d="M 46.547754,47.718828 H 3.4522457 c -0.7026442,0 -1.1710736,-0.46843 -1.1710736,-1.171074 V 3.4522457 c 0,-0.7026442 0.4684294,-1.1710736 1.1710736,-1.1710736 H 46.547754 c 0.702644,0 1.171074,0.4684294 1.171074,1.1710736 V 46.547754 c 0,0.585537 -0.585537,1.171074 -1.171074,1.171074 z"
         class="st5"
         style="stroke:#ffffff;fill:#ffffff" /><path
         class="st5"
         d="M43.4,44.4H6.6c-0.6,0-1-0.4-1-1V6.6c0-0.6,0.4-1,1-1h36.8c0.6,0,1,0.4,1,1v36.8   C44.4,43.9,43.9,44.4,43.4,44.4z"
         id="path69"
         inkscape:export-filename="/home/carlitro/workspace/chrome/attendance/images/icon_32.png"
         inkscape:export-xdpi="73.492821"
         inkscape:export-ydpi="73.492821" /><g
         id="g95"><g
           id="g77"
           inkscape:export-filename="/home/carlitro/workspace/chrome/attendance/images/icon_32.png"
           inkscape:export-xdpi="73.492821"
           inkscape:export-ydpi="73.492821"><line
             class="st5"
             x1="11.9"
             x2="24.4"
             y1="36.2"
             y2="36.2"
             id="line71" /><line
             class="st7"
             x1="30.7"
             x2="33.2"
             y1="34.8"
             y2="37.5"
             id="line73" /><line
             class="st7"
             x1="38.1"
             x2="33.2"
             y1="32.5"
             y2="37.5"
             id="line75" /></g><g
           id="g85"
           inkscape:export-filename="/home/carlitro/workspace/chrome/attendance/images/icon_32.png"
           inkscape:export-xdpi="73.492821"
           inkscape:export-ydpi="73.492821"><line
             class="st5"
             x1="11.9"
             x2="24.4"
             y1="26.2"
             y2="26.2"
             id="line79" /><line
             class="st5"
             x1="30.7"
             x2="33.2"
             y1="24.8"
             y2="27.5"
             id="line81"
             style="fill:none;stroke:#008000" /><line
             class="st5"
             x1="38.1"
             x2="33.2"
             y1="22.5"
             y2="27.5"
             id="line83"
             style="fill:none;stroke:#008000" /></g><g
           id="g93"
           inkscape:export-filename="/home/carlitro/workspace/chrome/attendance/images/icon_32.png"
           inkscape:export-xdpi="73.492821"
           inkscape:export-ydpi="73.492821"><line
             class="st5"
             x1="11.9"
             x2="24.4"
             y1="16.2"
             y2="16.2"
             id="line87" /><line
             class="st5"
             x1="30.7"
             x2="33.2"
             y1="14.8"
             y2="17.5"
             id="line89"
             style="fill:none;stroke:#008000" /><line
             class="st5"
             x1="38.1"
             x2="33.2"
             y1="12.5"
             y2="17.5"
             id="line91"
             style="fill:none;stroke:#008000" /></g></g></g></g><g
     id="отчет"
     class="st0"><path
       id="path98"
       d="M44.2,9.3H5.7c-0.6,0-1-0.4-1-1V4.9c0-0.6,0.4-1,1-1h38.5c0.6,0,1,0.4,1,1v3.4C45.2,8.9,44.7,9.3,44.2,9.3z"
       class="st4" /><path
       id="path100"
       d="M42.2,38.4H7.7c-0.6,0-1-0.4-1-1V9.3h36.5v28.1C43.2,38,42.7,38.4,42.2,38.4z"
       class="st4" /><line
       id="line102"
       y2="38.4"
       y1="42.8"
       x2="25"
       x1="25"
       class="st4" /><circle
       id="circle104"
       r="2.2"
       cy="45.6"
       cx="25"
       class="st4" /><g
       id="g114"
       class="st1"><line
         id="line106"
         y2="18.8"
         y1="18.8"
         x2="38.7"
         x1="28"
         class="st5" /><line
         id="line108"
         y2="23.9"
         y1="23.9"
         x2="38.7"
         x1="28"
         class="st5" /><line
         id="line110"
         y2="29"
         y1="29"
         x2="38.7"
         x1="28"
         class="st5" /><path
         id="path112"
         d="M17.8,23.4l-0.6-5.2c0-0.2-0.1-0.3-0.3-0.3c-3.5,0.2-6.2,3.5-5.4,7.1c0.5,2.2,2.3,4,4.5,4.5    c3.7,0.8,6.9-1.9,7.1-5.3c0-0.2-0.1-0.3-0.3-0.3L17.8,23.4z"
         class="st5" /></g></g></svg>
